<?xml version="1.0" encoding="UTF-8" standalone="no"?>
<!DOCTYPE svg PUBLIC "-//W3C//DTD SVG 1.1//EN"
 "http://www.w3.org/Graphics/SVG/1.1/DTD/svg11.dtd">
<!-- Generated by graphviz version 2.38.0 (20140413.2041)
 -->
<!-- Title: G Pages: 1 -->
<svg width="885pt" height="1946pt"
 viewBox="0.00 0.00 884.95 1946.00" xmlns="http://www.w3.org/2000/svg" xmlns:xlink="http://www.w3.org/1999/xlink">
<g id="graph0" class="graph" transform="scale(1 1) rotate(0) translate(4 1942)">
<title>G</title>
<polygon fill="white" stroke="none" points="-4,4 -4,-1942 880.949,-1942 880.949,4 -4,4"/>
<g id="clust1" class="cluster"><title>cluster_Global</title>
<path fill="none" stroke="gray" d="M188.975,-530C188.975,-530 856.949,-530 856.949,-530 862.949,-530 868.949,-536 868.949,-542 868.949,-542 868.949,-1918 868.949,-1918 868.949,-1924 862.949,-1930 856.949,-1930 856.949,-1930 188.975,-1930 188.975,-1930 182.975,-1930 176.975,-1924 176.975,-1918 176.975,-1918 176.975,-542 176.975,-542 176.975,-536 182.975,-530 188.975,-530"/>
<text text-anchor="middle" x="522.962" y="-1917.2" font-family="Times,serif" font-size="11.00" fill="gray">Global</text>
</g>
<g id="clust2" class="cluster"><title>cluster_\Teknoo</title>
<path fill="none" stroke="gray" d="M196.975,-538C196.975,-538 848.949,-538 848.949,-538 854.949,-538 860.949,-544 860.949,-550 860.949,-550 860.949,-1890 860.949,-1890 860.949,-1896 854.949,-1902 848.949,-1902 848.949,-1902 196.975,-1902 196.975,-1902 190.975,-1902 184.975,-1896 184.975,-1890 184.975,-1890 184.975,-550 184.975,-550 184.975,-544 190.975,-538 196.975,-538"/>
<text text-anchor="middle" x="522.962" y="-1889.2" font-family="Times,serif" font-size="11.00" fill="gray">Teknoo</text>
</g>
<g id="clust3" class="cluster"><title>cluster_\Teknoo\East</title>
<path fill="none" stroke="gray" d="M204.975,-546C204.975,-546 840.949,-546 840.949,-546 846.949,-546 852.949,-552 852.949,-558 852.949,-558 852.949,-1862 852.949,-1862 852.949,-1868 846.949,-1874 840.949,-1874 840.949,-1874 204.975,-1874 204.975,-1874 198.975,-1874 192.975,-1868 192.975,-1862 192.975,-1862 192.975,-558 192.975,-558 192.975,-552 198.975,-546 204.975,-546"/>
<text text-anchor="middle" x="522.962" y="-1861.2" font-family="Times,serif" font-size="11.00" fill="gray">East</text>
</g>
<g id="clust4" class="cluster"><title>cluster_\Teknoo\East\Framework</title>
<path fill="none" stroke="gray" d="M212.975,-554C212.975,-554 832.949,-554 832.949,-554 838.949,-554 844.949,-560 844.949,-566 844.949,-566 844.949,-1834 844.949,-1834 844.949,-1840 838.949,-1846 832.949,-1846 832.949,-1846 212.975,-1846 212.975,-1846 206.975,-1846 200.975,-1840 200.975,-1834 200.975,-1834 200.975,-566 200.975,-566 200.975,-560 206.975,-554 212.975,-554"/>
<text text-anchor="middle" x="522.962" y="-1833.2" font-family="Times,serif" font-size="11.00" fill="gray">Framework</text>
</g>
<g id="clust5" class="cluster"><title>cluster_\Teknoo\East\Framework\Router</title>
<path fill="none" stroke="gray" d="M230.975,-1746C230.975,-1746 760.949,-1746 760.949,-1746 766.949,-1746 772.949,-1752 772.949,-1758 772.949,-1758 772.949,-1806 772.949,-1806 772.949,-1812 766.949,-1818 760.949,-1818 760.949,-1818 230.975,-1818 230.975,-1818 224.975,-1818 218.975,-1812 218.975,-1806 218.975,-1806 218.975,-1758 218.975,-1758 218.975,-1752 224.975,-1746 230.975,-1746"/>
<text text-anchor="middle" x="495.962" y="-1805.2" font-family="Times,serif" font-size="11.00" fill="gray">Router</text>
</g>
<g id="clust6" class="cluster"><title>cluster_\Teknoo\East\Framework\Processor</title>
<path fill="none" stroke="gray" d="M220.975,-1666C220.975,-1666 770.949,-1666 770.949,-1666 776.949,-1666 782.949,-1672 782.949,-1678 782.949,-1678 782.949,-1726 782.949,-1726 782.949,-1732 776.949,-1738 770.949,-1738 770.949,-1738 220.975,-1738 220.975,-1738 214.975,-1738 208.975,-1732 208.975,-1726 208.975,-1726 208.975,-1678 208.975,-1678 208.975,-1672 214.975,-1666 220.975,-1666"/>
<text text-anchor="middle" x="495.962" y="-1725.2" font-family="Times,serif" font-size="11.00" fill="gray">Processor</text>
</g>
<g id="clust7" class="cluster"><title>cluster_\Teknoo\East\Framework\DependencyInjection</title>
<path fill="none" stroke="gray" d="M647.949,-768C647.949,-768 824.949,-768 824.949,-768 830.949,-768 836.949,-774 836.949,-780 836.949,-780 836.949,-936 836.949,-936 836.949,-942 830.949,-948 824.949,-948 824.949,-948 647.949,-948 647.949,-948 641.949,-948 635.949,-942 635.949,-936 635.949,-936 635.949,-780 635.949,-780 635.949,-774 641.949,-768 647.949,-768"/>
<text text-anchor="middle" x="736.449" y="-935.2" font-family="Times,serif" font-size="11.00" fill="gray">DependencyInjection</text>
</g>
<g id="clust8" class="cluster"><title>cluster_\Teknoo\East\Framework\Http</title>
<path fill="none" stroke="gray" d="M230.975,-1306C230.975,-1306 780.449,-1306 780.449,-1306 786.449,-1306 792.449,-1312 792.449,-1318 792.449,-1318 792.449,-1646 792.449,-1646 792.449,-1652 786.449,-1658 780.449,-1658 780.449,-1658 230.975,-1658 230.975,-1658 224.975,-1658 218.975,-1652 218.975,-1646 218.975,-1646 218.975,-1318 218.975,-1318 218.975,-1312 224.975,-1306 230.975,-1306"/>
<text text-anchor="middle" x="505.712" y="-1645.2" font-family="Times,serif" font-size="11.00" fill="gray">Http</text>
</g>
<g id="clust9" class="cluster"><title>cluster_\Teknoo\East\Framework\Http\Client</title>
<path fill="none" stroke="gray" d="M700.449,-1314C700.449,-1314 772.449,-1314 772.449,-1314 778.449,-1314 784.449,-1320 784.449,-1326 784.449,-1326 784.449,-1618 784.449,-1618 784.449,-1624 778.449,-1630 772.449,-1630 772.449,-1630 700.449,-1630 700.449,-1630 694.449,-1630 688.449,-1624 688.449,-1618 688.449,-1618 688.449,-1326 688.449,-1326 688.449,-1320 694.449,-1314 700.449,-1314"/>
<text text-anchor="middle" x="736.449" y="-1617.2" font-family="Times,serif" font-size="11.00" fill="gray">Client</text>
</g>
<g id="clust10" class="cluster"><title>cluster_\Teknoo\East\Framework\Http\Client\States</title>
<path fill="none" stroke="gray" d="M708.449,-1422C708.449,-1422 764.449,-1422 764.449,-1422 770.449,-1422 776.449,-1428 776.449,-1434 776.449,-1434 776.449,-1590 776.449,-1590 776.449,-1596 770.449,-1602 764.449,-1602 764.449,-1602 708.449,-1602 708.449,-1602 702.449,-1602 696.449,-1596 696.449,-1590 696.449,-1590 696.449,-1434 696.449,-1434 696.449,-1428 702.449,-1422 708.449,-1422"/>
<text text-anchor="middle" x="736.449" y="-1589.2" font-family="Times,serif" font-size="11.00" fill="gray">States</text>
</g>
<g id="clust11" class="cluster"><title>cluster_\Teknoo\East\Framework\Controller</title>
<path fill="none" stroke="gray" d="M698.449,-688C698.449,-688 774.449,-688 774.449,-688 780.449,-688 786.449,-694 786.449,-700 786.449,-700 786.449,-748 786.449,-748 786.449,-754 780.449,-760 774.449,-760 774.449,-760 698.449,-760 698.449,-760 692.449,-760 686.449,-754 686.449,-748 686.449,-748 686.449,-700 686.449,-700 686.449,-694 692.449,-688 698.449,-688"/>
<text text-anchor="middle" x="736.449" y="-747.2" font-family="Times,serif" font-size="11.00" fill="gray">Controller</text>
</g>
<g id="clust12" class="cluster"><title>cluster_\Teknoo\East\Framework\Manager</title>
<path fill="none" stroke="gray" d="M227.475,-956C227.475,-956 780.449,-956 780.449,-956 786.449,-956 792.449,-962 792.449,-968 792.449,-968 792.449,-1286 792.449,-1286 792.449,-1292 786.449,-1298 780.449,-1298 780.449,-1298 227.475,-1298 227.475,-1298 221.475,-1298 215.475,-1292 215.475,-1286 215.475,-1286 215.475,-968 215.475,-968 215.475,-962 221.475,-956 227.475,-956"/>
<text text-anchor="middle" x="503.962" y="-1285.2" font-family="Times,serif" font-size="11.00" fill="gray">Manager</text>
</g>
<g id="clust13" class="cluster"><title>cluster_\Teknoo\East\Framework\Manager\Manager</title>
<path fill="none" stroke="gray" d="M700.449,-964C700.449,-964 772.449,-964 772.449,-964 778.449,-964 784.449,-970 784.449,-976 784.449,-976 784.449,-1258 784.449,-1258 784.449,-1264 778.449,-1270 772.449,-1270 772.449,-1270 700.449,-1270 700.449,-1270 694.449,-1270 688.449,-1264 688.449,-1258 688.449,-1258 688.449,-976 688.449,-976 688.449,-970 694.449,-964 700.449,-964"/>
<text text-anchor="middle" x="736.449" y="-1257.2" font-family="Times,serif" font-size="11.00" fill="gray">Manager</text>
</g>
<g id="clust14" class="cluster"><title>cluster_\Teknoo\East\Framework\Manager\Manager\States</title>
<path fill="none" stroke="gray" d="M708.449,-1018C708.449,-1018 764.449,-1018 764.449,-1018 770.449,-1018 776.449,-1024 776.449,-1030 776.449,-1030 776.449,-1186 776.449,-1186 776.449,-1192 770.449,-1198 764.449,-1198 764.449,-1198 708.449,-1198 708.449,-1198 702.449,-1198 696.449,-1192 696.449,-1186 696.449,-1186 696.449,-1030 696.449,-1030 696.449,-1024 702.449,-1018 708.449,-1018"/>
<text text-anchor="middle" x="736.449" y="-1185.2" font-family="Times,serif" font-size="11.00" fill="gray">States</text>
</g>
<g id="clust15" class="cluster"><title>cluster_\Teknoo\East\Framework\Listener</title>
<path fill="none" stroke="gray" d="M684.949,-608C684.949,-608 787.949,-608 787.949,-608 793.949,-608 799.949,-614 799.949,-620 799.949,-620 799.949,-668 799.949,-668 799.949,-674 793.949,-680 787.949,-680 787.949,-680 684.949,-680 684.949,-680 678.949,-680 672.949,-674 672.949,-668 672.949,-668 672.949,-620 672.949,-620 672.949,-614 678.949,-608 684.949,-608"/>
<text text-anchor="middle" x="736.449" y="-667.2" font-family="Times,serif" font-size="11.00" fill="gray">Listener</text>
</g>
<!-- \\Teknoo\\East\\Framework\\Router\\Router -->
<g id="node1" class="node"><title>\\Teknoo\\East\\Framework\\Router\\Router</title>
<polygon fill="none" stroke="black" points="764.949,-1790 707.949,-1790 707.949,-1754 764.949,-1754 764.949,-1790"/>
<text text-anchor="middle" x="736.449" y="-1769.2" font-family="Courier,monospace" font-size="11.00">Router</text>
</g>
<!-- \\Teknoo\\East\\Framework\\Router\\RouterInterface -->
<g id="node2" class="node"><title>\\Teknoo\\East\\Framework\\Router\\RouterInterface</title>
<polygon fill="none" stroke="black" points="344.975,-1790 226.975,-1790 226.975,-1754 344.975,-1754 344.975,-1790"/>
<text text-anchor="middle" x="285.975" y="-1769.2" font-family="Courier,monospace" font-size="11.00">RouterInterface</text>
</g>
<!-- \\Teknoo\\East\\Framework\\Router\\Router&#45;&gt;\\Teknoo\\East\\Framework\\Router\\RouterInterface -->
<g id="edge1" class="edge"><title>\\Teknoo\\East\\Framework\\Router\\Router&#45;&gt;\\Teknoo\\East\\Framework\\Router\\RouterInterface</title>
<path fill="none" stroke="black" stroke-dasharray="1,5" d="M707.734,-1772C638.312,-1772 455.369,-1772 355.097,-1772"/>
<polygon fill="none" stroke="black" points="355.066,-1768.5 345.066,-1772 355.066,-1775.5 355.066,-1768.5"/>
</g>
<!-- \\Teknoo\\East\\Framework\\Processor\\Processor -->
<g id="node3" class="node"><title>\\Teknoo\\East\\Framework\\Processor\\Processor</title>
<polygon fill="none" stroke="black" points="774.949,-1710 697.949,-1710 697.949,-1674 774.949,-1674 774.949,-1710"/>
<text text-anchor="middle" x="736.449" y="-1689.2" font-family="Courier,monospace" font-size="11.00">Processor</text>
</g>
<!-- \\Teknoo\\East\\Framework\\Processor\\ProcessorInterface -->
<g id="node4" class="node"><title>\\Teknoo\\East\\Framework\\Processor\\ProcessorInterface</title>
<polygon fill="none" stroke="black" points="354.975,-1710 216.975,-1710 216.975,-1674 354.975,-1674 354.975,-1710"/>
<text text-anchor="middle" x="285.975" y="-1689.2" font-family="Courier,monospace" font-size="11.00">ProcessorInterface</text>
</g>
<!-- \\Teknoo\\East\\Framework\\Processor\\Processor&#45;&gt;\\Teknoo\\East\\Framework\\Processor\\ProcessorInterface -->
<g id="edge2" class="edge"><title>\\Teknoo\\East\\Framework\\Processor\\Processor&#45;&gt;\\Teknoo\\East\\Framework\\Processor\\ProcessorInterface</title>
<path fill="none" stroke="black" stroke-dasharray="1,5" d="M697.599,-1692C624.481,-1692 462.465,-1692 365.228,-1692"/>
<polygon fill="none" stroke="black" points="365.154,-1688.5 355.154,-1692 365.154,-1695.5 365.154,-1688.5"/>
</g>
<!-- \\Teknoo\\Immutable\\ImmutableInterface -->
<g id="node23" class="node"><title>\\Teknoo\\Immutable\\ImmutableInterface</title>
<ellipse fill="none" stroke="black" cx="285.975" cy="-504" rx="151.373" ry="18"/>
<text text-anchor="middle" x="285.975" y="-500.3" font-family="Times,serif" font-size="14.00" fill="gray">Teknoo\Immutable\ImmutableInterface</text>
</g>
<!-- \\Teknoo\\East\\Framework\\Processor\\Processor&#45;&gt;\\Teknoo\\Immutable\\ImmutableInterface -->
<g id="edge3" class="edge"><title>\\Teknoo\\East\\Framework\\Processor\\Processor&#45;&gt;\\Teknoo\\Immutable\\ImmutableInterface</title>
<path fill="none" stroke="black" stroke-dasharray="1,5" d="M703.66,-1673.79C680.66,-1658.76 651.068,-1635.2 635.949,-1606 501.655,-1346.65 667.153,-1228.1 571.949,-952 510.571,-773.995 365.711,-594.832 309.667,-529.686"/>
<polygon fill="none" stroke="black" points="312.169,-527.229 302.977,-521.962 306.878,-531.812 312.169,-527.229"/>
</g>
<!-- \\Teknoo\\East\\Framework\\DependencyInjection\\EastFrameworkExtension -->
<g id="node5" class="node"><title>\\Teknoo\\East\\Framework\\DependencyInjection\\EastFrameworkExtension</title>
<polygon fill="none" stroke="black" points="818.949,-920 653.949,-920 653.949,-884 818.949,-884 818.949,-920"/>
<text text-anchor="middle" x="736.449" y="-899.2" font-family="Courier,monospace" font-size="11.00">EastFrameworkExtension</text>
</g>
<!-- \\Symfony\\Component\\HttpKernel\\DependencyInjection\\Extension -->
<g id="node24" class="node"><title>\\Symfony\\Component\\HttpKernel\\DependencyInjection\\Extension</title>
<ellipse fill="none" stroke="black" cx="285.975" cy="-234" rx="236.658" ry="18"/>
<text text-anchor="middle" x="285.975" y="-230.3" font-family="Times,serif" font-size="14.00" fill="gray">\Symfony\ComponentHttpKernel\DependencyInjectionxtension</text>
</g>
<!-- \\Teknoo\\East\\Framework\\DependencyInjection\\EastFrameworkExtension&#45;&gt;\\Symfony\\Component\\HttpKernel\\DependencyInjection\\Extension -->
<g id="edge4" class="edge"><title>\\Teknoo\\East\\Framework\\DependencyInjection\\EastFrameworkExtension&#45;&gt;\\Symfony\\Component\\HttpKernel\\DependencyInjection\\Extension</title>
<path fill="none" stroke="black" d="M653.784,-889.205C647.055,-885.517 640.936,-880.863 635.949,-875 547.066,-770.505 669.407,-357.547 571.949,-261 521.764,-211.284 439.45,-208.454 376.159,-215.77"/>
<polygon fill="none" stroke="black" points="375.658,-212.306 366.172,-217.026 376.531,-219.251 375.658,-212.306"/>
</g>
<!-- \\Teknoo\\East\\Framework\\DependencyInjection\\Configuration -->
<g id="node6" class="node"><title>\\Teknoo\\East\\Framework\\DependencyInjection\\Configuration</title>
<polygon fill="none" stroke="black" points="788.449,-866 684.449,-866 684.449,-830 788.449,-830 788.449,-866"/>
<text text-anchor="middle" x="736.449" y="-845.2" font-family="Courier,monospace" font-size="11.00">Configuration</text>
</g>
<!-- \\Symfony\\Component\\Config\\Definition\\ConfigurationInterface -->
<g id="node25" class="node"><title>\\Symfony\\Component\\Config\\Definition\\ConfigurationInterface</title>
<ellipse fill="none" stroke="black" cx="285.975" cy="-180" rx="237.758" ry="18"/>
<text text-anchor="middle" x="285.975" y="-176.3" font-family="Times,serif" font-size="14.00" fill="gray">\Symfony\Component\Config\Definition\ConfigurationInterface</text>
</g>
<!-- \\Teknoo\\East\\Framework\\DependencyInjection\\Configuration&#45;&gt;\\Symfony\\Component\\Config\\Definition\\ConfigurationInterface -->
<g id="edge5" class="edge"><title>\\Teknoo\\East\\Framework\\DependencyInjection\\Configuration&#45;&gt;\\Symfony\\Component\\Config\\Definition\\ConfigurationInterface</title>
<path fill="none" stroke="black" stroke-dasharray="1,5" d="M684.368,-845.694C666.513,-842.225 647.952,-835.111 635.949,-821 547.066,-716.505 669.407,-303.547 571.949,-207 521.764,-157.284 439.45,-154.454 376.159,-161.77"/>
<polygon fill="none" stroke="black" points="375.658,-158.306 366.172,-163.026 376.531,-165.251 375.658,-158.306"/>
</g>
<!-- \\Teknoo\\East\\Framework\\DependencyInjection\\EastFrameworkCompilerPass -->
<g id="node7" class="node"><title>\\Teknoo\\East\\Framework\\DependencyInjection\\EastFrameworkCompilerPass</title>
<polygon fill="none" stroke="black" points="828.949,-812 643.949,-812 643.949,-776 828.949,-776 828.949,-812"/>
<text text-anchor="middle" x="736.449" y="-791.2" font-family="Courier,monospace" font-size="11.00">EastFrameworkCompilerPass</text>
</g>
<!-- \\Symfony\\Component\\DependencyInjection\\Compiler\\CompilerPassInterface -->
<g id="node26" class="node"><title>\\Symfony\\Component\\DependencyInjection\\Compiler\\CompilerPassInterface</title>
<ellipse fill="none" stroke="black" cx="285.975" cy="-126" rx="285.949" ry="18"/>
<text text-anchor="middle" x="285.975" y="-122.3" font-family="Times,serif" font-size="14.00" fill="gray">\Symfony\Component\DependencyInjection\Compiler\CompilerPassInterface</text>
</g>
<!-- \\Teknoo\\East\\Framework\\DependencyInjection\\EastFrameworkCompilerPass&#45;&gt;\\Symfony\\Component\\DependencyInjection\\Compiler\\CompilerPassInterface -->
<g id="edge6" class="edge"><title>\\Teknoo\\East\\Framework\\DependencyInjection\\EastFrameworkCompilerPass&#45;&gt;\\Symfony\\Component\\DependencyInjection\\Compiler\\CompilerPassInterface</title>
<path fill="none" stroke="black" stroke-dasharray="1,5" d="M649.123,-775.81C644.215,-772.491 639.745,-768.588 635.949,-764 548.927,-658.81 668.961,-249.056 571.949,-153 522.338,-103.878 441.358,-100.538 378.378,-107.526"/>
<polygon fill="none" stroke="black" points="377.939,-104.053 368.432,-108.731 378.78,-111.003 377.939,-104.053"/>
</g>
<!-- \\Teknoo\\East\\Framework\\Http\\Client\\States\\Error -->
<g id="node8" class="node"><title>\\Teknoo\\East\\Framework\\Http\\Client\\States\\Error</title>
<polygon fill="none" stroke="black" points="763.449,-1574 709.449,-1574 709.449,-1538 763.449,-1538 763.449,-1574"/>
<text text-anchor="middle" x="736.449" y="-1553.2" font-family="Courier,monospace" font-size="11.00">Error</text>
</g>
<!-- \\Teknoo\\States\\State\\AbstractState -->
<g id="node29" class="node"><title>\\Teknoo\\States\\State\\AbstractState</title>
<ellipse fill="none" stroke="black" cx="285.975" cy="-342" rx="130.777" ry="18"/>
<text text-anchor="middle" x="285.975" y="-338.3" font-family="Times,serif" font-size="14.00" fill="gray">Teknoo\States\State\AbstractState</text>
</g>
<!-- \\Teknoo\\East\\Framework\\Http\\Client\\States\\Error&#45;&gt;\\Teknoo\\States\\State\\AbstractState -->
<g id="edge9" class="edge"><title>\\Teknoo\\East\\Framework\\Http\\Client\\States\\Error&#45;&gt;\\Teknoo\\States\\State\\AbstractState</title>
<path fill="none" stroke="black" d="M709.358,-1556.78C686.198,-1555.91 653.404,-1550.56 635.949,-1529 473.52,-1328.33 750.876,-555.11 571.949,-369 519.394,-314.336 428.247,-315.244 363.184,-324.897"/>
<polygon fill="none" stroke="black" points="362.305,-321.493 352.976,-326.515 363.401,-328.407 362.305,-321.493"/>
</g>
<!-- \\Teknoo\\East\\Framework\\Http\\Client\\States\\Pending -->
<g id="node9" class="node"><title>\\Teknoo\\East\\Framework\\Http\\Client\\States\\Pending</title>
<polygon fill="none" stroke="black" points="768.449,-1520 704.449,-1520 704.449,-1484 768.449,-1484 768.449,-1520"/>
<text text-anchor="middle" x="736.449" y="-1499.2" font-family="Courier,monospace" font-size="11.00">Pending</text>
</g>
<!-- \\Teknoo\\East\\Framework\\Http\\Client\\States\\Pending&#45;&gt;\\Teknoo\\States\\State\\AbstractState -->
<g id="edge10" class="edge"><title>\\Teknoo\\East\\Framework\\Http\\Client\\States\\Pending&#45;&gt;\\Teknoo\\States\\State\\AbstractState</title>
<path fill="none" stroke="black" d="M704.306,-1502.51C681.644,-1501.05 652.192,-1495.01 635.949,-1475 480.801,-1283.85 742.811,-546.243 571.949,-369 519.403,-314.491 428.472,-315.298 363.452,-324.887"/>
<polygon fill="none" stroke="black" points="362.583,-321.481 353.249,-326.494 363.672,-328.396 362.583,-321.481"/>
</g>
<!-- \\Teknoo\\East\\Framework\\Http\\Client\\States\\Success -->
<g id="node10" class="node"><title>\\Teknoo\\East\\Framework\\Http\\Client\\States\\Success</title>
<polygon fill="none" stroke="black" points="768.449,-1466 704.449,-1466 704.449,-1430 768.449,-1430 768.449,-1466"/>
<text text-anchor="middle" x="736.449" y="-1445.2" font-family="Courier,monospace" font-size="11.00">Success</text>
</g>
<!-- \\Teknoo\\East\\Framework\\Http\\Client\\States\\Success&#45;&gt;\\Teknoo\\States\\State\\AbstractState -->
<g id="edge11" class="edge"><title>\\Teknoo\\East\\Framework\\Http\\Client\\States\\Success&#45;&gt;\\Teknoo\\States\\State\\AbstractState</title>
<path fill="none" stroke="black" d="M704.008,-1450.17C681.5,-1449.85 652.379,-1445.24 635.949,-1426 483.126,-1247.06 735.493,-538.199 571.949,-369 519.33,-314.561 428.413,-315.355 363.416,-324.922"/>
<polygon fill="none" stroke="black" points="362.552,-321.514 353.217,-326.525 363.64,-328.43 362.552,-321.514"/>
</g>
<!-- \\Teknoo\\East\\Framework\\Http\\Client\\Factory -->
<g id="node11" class="node"><title>\\Teknoo\\East\\Framework\\Http\\Client\\Factory</title>
<polygon fill="none" stroke="black" points="768.449,-1358 704.449,-1358 704.449,-1322 768.449,-1322 768.449,-1358"/>
<text text-anchor="middle" x="736.449" y="-1337.2" font-family="Courier,monospace" font-size="11.00">Factory</text>
</g>
<!-- \\Teknoo\\States\\Factory\\Integrated -->
<g id="node28" class="node"><title>\\Teknoo\\States\\Factory\\Integrated</title>
<ellipse fill="none" stroke="black" cx="285.975" cy="-288" rx="128.077" ry="18"/>
<text text-anchor="middle" x="285.975" y="-284.3" font-family="Times,serif" font-size="14.00" fill="gray">Teknoo\States\Factory\Integrated</text>
</g>
<!-- \\Teknoo\\East\\Framework\\Http\\Client\\Factory&#45;&gt;\\Teknoo\\States\\Factory\\Integrated -->
<g id="edge8" class="edge"><title>\\Teknoo\\East\\Framework\\Http\\Client\\Factory&#45;&gt;\\Teknoo\\States\\Factory\\Integrated</title>
<path fill="none" stroke="black" d="M704.062,-1328.2C680.954,-1317.72 651.037,-1300 635.949,-1274 528.736,-1089.27 720.861,-468.114 571.949,-315 519.08,-260.639 427.994,-261.489 363.031,-271.046"/>
<polygon fill="none" stroke="black" points="362.174,-267.638 352.839,-272.648 363.261,-274.553 362.174,-267.638"/>
</g>
<!-- \\Teknoo\\East\\Framework\\Http\\Client\\Client -->
<g id="node12" class="node"><title>\\Teknoo\\East\\Framework\\Http\\Client\\Client</title>
<polygon fill="none" stroke="black" points="764.949,-1412 707.949,-1412 707.949,-1376 764.949,-1376 764.949,-1412"/>
<text text-anchor="middle" x="736.449" y="-1391.2" font-family="Courier,monospace" font-size="11.00">Client</text>
</g>
<!-- \\Teknoo\\East\\Framework\\Http\\ClientInterface -->
<g id="node13" class="node"><title>\\Teknoo\\East\\Framework\\Http\\ClientInterface</title>
<polygon fill="none" stroke="black" points="344.975,-1412 226.975,-1412 226.975,-1376 344.975,-1376 344.975,-1412"/>
<text text-anchor="middle" x="285.975" y="-1391.2" font-family="Courier,monospace" font-size="11.00">ClientInterface</text>
</g>
<!-- \\Teknoo\\East\\Framework\\Http\\Client\\Client&#45;&gt;\\Teknoo\\East\\Framework\\Http\\ClientInterface -->
<g id="edge14" class="edge"><title>\\Teknoo\\East\\Framework\\Http\\Client\\Client&#45;&gt;\\Teknoo\\East\\Framework\\Http\\ClientInterface</title>
<path fill="none" stroke="black" stroke-dasharray="1,5" d="M707.734,-1394C638.312,-1394 455.369,-1394 355.097,-1394"/>
<polygon fill="none" stroke="black" points="355.066,-1390.5 345.066,-1394 355.066,-1397.5 355.066,-1390.5"/>
</g>
<!-- \\Teknoo\\States\\Proxy\\ProxyInterface -->
<g id="node30" class="node"><title>\\Teknoo\\States\\Proxy\\ProxyInterface</title>
<ellipse fill="none" stroke="black" cx="285.975" cy="-450" rx="139.175" ry="18"/>
<text text-anchor="middle" x="285.975" y="-446.3" font-family="Times,serif" font-size="14.00" fill="gray">Teknoo\States\Proxy\ProxyInterface</text>
</g>
<!-- \\Teknoo\\East\\Framework\\Http\\Client\\Client&#45;&gt;\\Teknoo\\States\\Proxy\\ProxyInterface -->
<g id="edge12" class="edge"><title>\\Teknoo\\East\\Framework\\Http\\Client\\Client&#45;&gt;\\Teknoo\\States\\Proxy\\ProxyInterface</title>
<path fill="none" stroke="black" stroke-dasharray="1,5" d="M707.634,-1394.63C684.659,-1393.51 653.128,-1387.87 635.949,-1367 509.914,-1213.92 710.562,-618.792 571.949,-477 519.518,-423.366 429.859,-423.588 365.092,-432.805"/>
<polygon fill="none" stroke="black" points="364.279,-429.389 354.92,-434.355 365.333,-436.309 364.279,-429.389"/>
</g>
<!-- \\Teknoo\\States\\Proxy\\IntegratedInterface -->
<g id="node31" class="node"><title>\\Teknoo\\States\\Proxy\\IntegratedInterface</title>
<ellipse fill="none" stroke="black" cx="285.975" cy="-396" rx="153.273" ry="18"/>
<text text-anchor="middle" x="285.975" y="-392.3" font-family="Times,serif" font-size="14.00" fill="gray">Teknoo\States\Proxy\IntegratedInterface</text>
</g>
<!-- \\Teknoo\\East\\Framework\\Http\\Client\\Client&#45;&gt;\\Teknoo\\States\\Proxy\\IntegratedInterface -->
<g id="edge13" class="edge"><title>\\Teknoo\\East\\Framework\\Http\\Client\\Client&#45;&gt;\\Teknoo\\States\\Proxy\\IntegratedInterface</title>
<path fill="none" stroke="black" stroke-dasharray="1,5" d="M707.613,-1394.65C684.624,-1393.54 653.086,-1387.9 635.949,-1367 502.638,-1204.41 718.622,-573.652 571.949,-423 520.121,-369.766 431.638,-369.5 366.988,-378.492"/>
<polygon fill="none" stroke="black" points="366.2,-375.07 356.826,-380.008 367.233,-381.994 366.2,-375.07"/>
</g>
<!-- \\Teknoo\\East\\Framework\\Controller\\Controller -->
<g id="node14" class="node"><title>\\Teknoo\\East\\Framework\\Controller\\Controller</title>
<polygon fill="none" stroke="black" points="778.449,-732 694.449,-732 694.449,-696 778.449,-696 778.449,-732"/>
<text text-anchor="start" x="702.449" y="-717.2" font-family="Courier,monospace" font-size="11.00">«abstract»</text>
<text text-anchor="start" x="702.449" y="-705.2" font-family="Courier,monospace" font-size="11.00">Controller</text>
</g>
<!-- \\Symfony\\Component\\DependencyInjection\\ContainerAwareInterface -->
<g id="node32" class="node"><title>\\Symfony\\Component\\DependencyInjection\\ContainerAwareInterface</title>
<ellipse fill="none" stroke="black" cx="285.975" cy="-72" rx="258.854" ry="18"/>
<text text-anchor="middle" x="285.975" y="-68.3" font-family="Times,serif" font-size="14.00" fill="gray">\Symfony\Component\DependencyInjection\ContainerAwareInterface</text>
</g>
<!-- \\Teknoo\\East\\Framework\\Controller\\Controller&#45;&gt;\\Symfony\\Component\\DependencyInjection\\ContainerAwareInterface -->
<g id="edge15" class="edge"><title>\\Teknoo\\East\\Framework\\Controller\\Controller&#45;&gt;\\Symfony\\Component\\DependencyInjection\\ContainerAwareInterface</title>
<path fill="none" stroke="black" stroke-dasharray="1,5" d="M694.272,-711.941C673.658,-708.659 650.135,-701.067 635.949,-684 552.357,-583.429 665.09,-190.799 571.949,-99 522.057,-49.8267 440.709,-46.6192 377.672,-53.6665"/>
<polygon fill="none" stroke="black" points="377.222,-50.1953 367.719,-54.8801 378.07,-57.1438 377.222,-50.1953"/>
</g>
<!-- \\Teknoo\\East\\Framework\\Manager\\Manager\\States\\HadRun -->
<g id="node15" class="node"><title>\\Teknoo\\East\\Framework\\Manager\\Manager\\States\\HadRun</title>
<polygon fill="none" stroke="black" points="764.949,-1170 707.949,-1170 707.949,-1134 764.949,-1134 764.949,-1170"/>
<text text-anchor="middle" x="736.449" y="-1149.2" font-family="Courier,monospace" font-size="11.00">HadRun</text>
</g>
<!-- \\Teknoo\\East\\Framework\\Manager\\Manager\\States\\HadRun&#45;&gt;\\Teknoo\\States\\State\\AbstractState -->
<g id="edge21" class="edge"><title>\\Teknoo\\East\\Framework\\Manager\\Manager\\States\\HadRun&#45;&gt;\\Teknoo\\States\\State\\AbstractState</title>
<path fill="none" stroke="black" d="M707.701,-1152.57C684.767,-1151.42 653.26,-1145.76 635.949,-1125 527.962,-995.52 690.57,-488.814 571.949,-369 519.013,-315.531 429.017,-315.863 364.311,-325.06"/>
<polygon fill="none" stroke="black" points="363.513,-321.641 354.153,-326.605 364.566,-328.561 363.513,-321.641"/>
</g>
<!-- \\Teknoo\\East\\Framework\\Manager\\Manager\\States\\Service -->
<g id="node16" class="node"><title>\\Teknoo\\East\\Framework\\Manager\\Manager\\States\\Service</title>
<polygon fill="none" stroke="black" points="768.449,-1116 704.449,-1116 704.449,-1080 768.449,-1080 768.449,-1116"/>
<text text-anchor="middle" x="736.449" y="-1095.2" font-family="Courier,monospace" font-size="11.00">Service</text>
</g>
<!-- \\Teknoo\\East\\Framework\\Manager\\Manager\\States\\Service&#45;&gt;\\Teknoo\\States\\State\\AbstractState -->
<g id="edge22" class="edge"><title>\\Teknoo\\East\\Framework\\Manager\\Manager\\States\\Service&#45;&gt;\\Teknoo\\States\\State\\AbstractState</title>
<path fill="none" stroke="black" d="M704.024,-1098.32C681.525,-1096.73 652.406,-1090.6 635.949,-1071 535.23,-951.025 682.519,-479.962 571.949,-369 518.924,-315.786 429.158,-316.002 364.529,-325.103"/>
<polygon fill="none" stroke="black" points="363.748,-321.681 354.382,-326.633 364.792,-328.603 363.748,-321.681"/>
</g>
<!-- \\Teknoo\\East\\Framework\\Manager\\Manager\\States\\Running -->
<g id="node17" class="node"><title>\\Teknoo\\East\\Framework\\Manager\\Manager\\States\\Running</title>
<polygon fill="none" stroke="black" points="768.449,-1062 704.449,-1062 704.449,-1026 768.449,-1026 768.449,-1062"/>
<text text-anchor="middle" x="736.449" y="-1041.2" font-family="Courier,monospace" font-size="11.00">Running</text>
</g>
<!-- \\Teknoo\\East\\Framework\\Manager\\Manager\\States\\Running&#45;&gt;\\Teknoo\\States\\State\\AbstractState -->
<g id="edge23" class="edge"><title>\\Teknoo\\East\\Framework\\Manager\\Manager\\States\\Running&#45;&gt;\\Teknoo\\States\\State\\AbstractState</title>
<path fill="none" stroke="black" d="M704.215,-1045.99C681.814,-1045.58 652.734,-1040.93 635.949,-1022 539.211,-912.907 675.217,-471.934 571.949,-369 518.827,-316.05 429.292,-316.149 364.743,-325.151"/>
<polygon fill="none" stroke="black" points="363.98,-321.726 354.607,-326.665 365.014,-328.649 363.98,-321.726"/>
</g>
<!-- \\Teknoo\\East\\Framework\\Manager\\Manager\\Manager -->
<g id="node18" class="node"><title>\\Teknoo\\East\\Framework\\Manager\\Manager\\Manager</title>
<polygon fill="none" stroke="black" points="768.449,-1242 704.449,-1242 704.449,-1206 768.449,-1206 768.449,-1242"/>
<text text-anchor="middle" x="736.449" y="-1221.2" font-family="Courier,monospace" font-size="11.00">Manager</text>
</g>
<!-- \\Teknoo\\East\\Framework\\Manager\\ManagerInterface -->
<g id="node20" class="node"><title>\\Teknoo\\East\\Framework\\Manager\\ManagerInterface</title>
<polygon fill="none" stroke="black" points="348.475,-1242 223.475,-1242 223.475,-1206 348.475,-1206 348.475,-1242"/>
<text text-anchor="middle" x="285.975" y="-1221.2" font-family="Courier,monospace" font-size="11.00">ManagerInterface</text>
</g>
<!-- \\Teknoo\\East\\Framework\\Manager\\Manager\\Manager&#45;&gt;\\Teknoo\\East\\Framework\\Manager\\ManagerInterface -->
<g id="edge16" class="edge"><title>\\Teknoo\\East\\Framework\\Manager\\Manager\\Manager&#45;&gt;\\Teknoo\\East\\Framework\\Manager\\ManagerInterface</title>
<path fill="none" stroke="black" stroke-dasharray="1,5" d="M704.269,-1224C633.284,-1224 458.106,-1224 358.759,-1224"/>
<polygon fill="none" stroke="black" points="358.505,-1220.5 348.505,-1224 358.504,-1227.5 358.505,-1220.5"/>
</g>
<!-- \\Teknoo\\East\\Framework\\Manager\\Manager\\Manager&#45;&gt;\\Teknoo\\Immutable\\ImmutableInterface -->
<g id="edge17" class="edge"><title>\\Teknoo\\East\\Framework\\Manager\\Manager\\Manager&#45;&gt;\\Teknoo\\Immutable\\ImmutableInterface</title>
<path fill="none" stroke="black" stroke-dasharray="1,5" d="M704.105,-1225.17C682.24,-1224.26 653.877,-1219.35 635.949,-1202 553.521,-1122.25 617.518,-1057.25 571.949,-952 497.117,-779.156 360.199,-596.828 307.973,-530.264"/>
<polygon fill="none" stroke="black" points="310.405,-527.695 301.464,-522.01 304.908,-532.029 310.405,-527.695"/>
</g>
<!-- \\Teknoo\\East\\Framework\\Manager\\Manager\\Manager&#45;&gt;\\Teknoo\\States\\Proxy\\ProxyInterface -->
<g id="edge18" class="edge"><title>\\Teknoo\\East\\Framework\\Manager\\Manager\\Manager&#45;&gt;\\Teknoo\\States\\Proxy\\ProxyInterface</title>
<path fill="none" stroke="black" stroke-dasharray="1,5" d="M704.162,-1226.04C681.733,-1225.65 652.643,-1221.01 635.949,-1202 529.227,-1080.47 685.948,-591.732 571.949,-477 519.333,-424.045 430.347,-423.939 365.788,-432.894"/>
<polygon fill="none" stroke="black" points="365.023,-429.469 355.646,-434.402 366.052,-436.393 365.023,-429.469"/>
</g>
<!-- \\Teknoo\\East\\Framework\\Manager\\Manager\\Manager&#45;&gt;\\Teknoo\\States\\Proxy\\IntegratedInterface -->
<g id="edge19" class="edge"><title>\\Teknoo\\East\\Framework\\Manager\\Manager\\Manager&#45;&gt;\\Teknoo\\States\\Proxy\\IntegratedInterface</title>
<path fill="none" stroke="black" stroke-dasharray="1,5" d="M704.128,-1226.07C681.682,-1225.69 652.585,-1221.06 635.949,-1202 521.734,-1071.14 694,-546.585 571.949,-423 519.991,-370.389 432.164,-369.813 367.715,-378.558"/>
<polygon fill="none" stroke="black" points="366.971,-375.13 357.581,-380.035 367.981,-382.056 366.971,-375.13"/>
</g>
<!-- \\Teknoo\\East\\Framework\\Manager\\Manager\\Factory -->
<g id="node19" class="node"><title>\\Teknoo\\East\\Framework\\Manager\\Manager\\Factory</title>
<polygon fill="none" stroke="black" points="768.449,-1008 704.449,-1008 704.449,-972 768.449,-972 768.449,-1008"/>
<text text-anchor="middle" x="736.449" y="-987.2" font-family="Courier,monospace" font-size="11.00">Factory</text>
</g>
<!-- \\Teknoo\\East\\Framework\\Manager\\Manager\\Factory&#45;&gt;\\Teknoo\\States\\Factory\\Integrated -->
<g id="edge20" class="edge"><title>\\Teknoo\\East\\Framework\\Manager\\Manager\\Factory&#45;&gt;\\Teknoo\\States\\Factory\\Integrated</title>
<path fill="none" stroke="black" d="M704.269,-986.688C681.589,-982.528 652.129,-973.148 635.949,-952 549.504,-839.006 672.833,-415.313 571.949,-315 518.679,-262.031 428.958,-262.203 364.406,-271.226"/>
<polygon fill="none" stroke="black" points="363.643,-267.801 354.271,-272.743 364.679,-274.724 363.643,-267.801"/>
</g>
<!-- \\Teknoo\\East\\Framework\\Listener\\KernelListener -->
<g id="node21" class="node"><title>\\Teknoo\\East\\Framework\\Listener\\KernelListener</title>
<polygon fill="none" stroke="black" points="791.949,-652 680.949,-652 680.949,-616 791.949,-616 791.949,-652"/>
<text text-anchor="middle" x="736.449" y="-631.2" font-family="Courier,monospace" font-size="11.00">KernelListener</text>
</g>
<!-- \\Teknoo\\East\\Framework\\EastFrameworkBundle -->
<g id="node22" class="node"><title>\\Teknoo\\East\\Framework\\EastFrameworkBundle</title>
<polygon fill="none" stroke="black" points="808.949,-598 663.949,-598 663.949,-562 808.949,-562 808.949,-598"/>
<text text-anchor="middle" x="736.449" y="-577.2" font-family="Courier,monospace" font-size="11.00">EastFrameworkBundle</text>
</g>
<!-- \\Symfony\\Component\\HttpKernel\\Bundle\\Bundle -->
<g id="node27" class="node"><title>\\Symfony\\Component\\HttpKernel\\Bundle\\Bundle</title>
<ellipse fill="none" stroke="black" cx="285.975" cy="-18" rx="184.667" ry="18"/>
<text text-anchor="middle" x="285.975" y="-14.3" font-family="Times,serif" font-size="14.00" fill="gray">\Symfony\ComponentHttpKernel\Bundle\Bundle</text>
</g>
<!-- \\Teknoo\\East\\Framework\\EastFrameworkBundle&#45;&gt;\\Symfony\\Component\\HttpKernel\\Bundle\\Bundle -->
<g id="edge7" class="edge"><title>\\Teknoo\\East\\Framework\\EastFrameworkBundle&#45;&gt;\\Symfony\\Component\\HttpKernel\\Bundle\\Bundle</title>
<path fill="none" stroke="black" d="M732.653,-561.975C719.029,-476.609 656.799,-114.225 571.949,-45 521.443,-3.79431 447.884,2.27537 388.152,-1.60363"/>
<polygon fill="none" stroke="black" points="387.641,1.86791 377.931,-2.37186 388.165,-5.1124 387.641,1.86791"/>
</g>
</g>
</svg>
